<!-- Placeholder SVG for dashboard preview -->
<svg width="500" height="350" viewBox="0 0 500 350" fill="none" xmlns="http://www.w3.org/2000/svg">
  <rect width="500" height="350" fill="#ffffff" stroke="#dee2e6" stroke-width="2" rx="8"/>
  <rect x="20" y="20" width="460" height="40" fill="#007bff" rx="4"/>
  <text x="250" y="45" text-anchor="middle" fill="#ffffff" font-family="Arial" font-size="16" font-weight="bold">Dashboard RinnovoCasa</text>
  
  <!-- Cards -->
  <rect x="30" y="80" width="100" height="80" fill="#e3f2fd" rx="4"/>
  <text x="80" y="110" text-anchor="middle" fill="#1976d2" font-family="Arial" font-size="12">Diagnosi</text>
  <text x="80" y="130" text-anchor="middle" fill="#1976d2" font-family="Arial" font-size="18" font-weight="bold">5</text>
  
  <rect x="150" y="80" width="100" height="80" fill="#e8f5e8" rx="4"/>
  <text x="200" y="110" text-anchor="middle" fill="#2e7d32" font-family="Arial" font-size="12">Progetti</text>
  <text x="200" y="130" text-anchor="middle" fill="#2e7d32" font-family="Arial" font-size="18" font-weight="bold">2</text>
  
  <rect x="270" y="80" width="100" height="80" fill="#fff3e0" rx="4"/>
  <text x="320" y="110" text-anchor="middle" fill="#f57c00" font-family="Arial" font-size="12">Risparmi</text>
  <text x="320" y="130" text-anchor="middle" fill="#f57c00" font-family="Arial" font-size="18" font-weight="bold">€5.2K</text>
  
  <rect x="390" y="80" width="100" height="80" fill="#f3e5f5" rx="4"/>
  <text x="440" y="110" text-anchor="middle" fill="#7b1fa2" font-family="Arial" font-size="12">Bonus</text>
  <text x="440" y="130" text-anchor="middle" fill="#7b1fa2" font-family="Arial" font-size="18" font-weight="bold">3</text>
  
  <!-- Chart area -->
  <rect x="30" y="180" width="220" height="140" fill="#f8f9fa" stroke="#dee2e6" rx="4"/>
  <text x="140" y="200" text-anchor="middle" fill="#6c757d" font-family="Arial" font-size="12">Progresso Lavori</text>
  
  <!-- Progress bars -->
  <rect x="50" y="220" width="180" height="8" fill="#e9ecef" rx="4"/>
  <rect x="50" y="220" width="126" height="8" fill="#28a745" rx="4"/>
  
  <rect x="50" y="240" width="180" height="8" fill="#e9ecef" rx="4"/>
  <rect x="50" y="240" width="90" height="8" fill="#ffc107" rx="4"/>
  
  <rect x="50" y="260" width="180" height="8" fill="#e9ecef" rx="4"/>
  <rect x="50" y="260" width="36" height="8" fill="#dc3545" rx="4"/>
  
  <!-- Activity feed -->
  <rect x="270" y="180" width="220" height="140" fill="#f8f9fa" stroke="#dee2e6" rx="4"/>
  <text x="380" y="200" text-anchor="middle" fill="#6c757d" font-family="Arial" font-size="12">Attività Recenti</text>
  
  <circle cx="290" cy="225" r="4" fill="#28a745"/>
  <text x="305" y="230" fill="#495057" font-family="Arial" font-size="11">Diagnosi completata</text>
  
  <circle cx="290" cy="245" r="4" fill="#007bff"/>
  <text x="305" y="250" fill="#495057" font-family="Arial" font-size="11">Preventivo ricevuto</text>
  
  <circle cx="290" cy="265" r="4" fill="#ffc107"/>
  <text x="305" y="270" fill="#495057" font-family="Arial" font-size="11">Consulenza programmata</text>
</svg>
